<mxfile host="Electron" agent="Mozilla/5.0 (Windows NT 10.0; Win64; x64) AppleWebKit/537.36 (KHTML, like Gecko) draw.io/24.7.17 Chrome/128.0.6613.36 Electron/32.0.1 Safari/537.36" version="24.7.17" pages="2">
  <diagram name="use case global app JobPortalX" id="iNIUY8b1itgkKJhrxlP6">
    <mxGraphModel dx="1036" dy="678" grid="1" gridSize="10" guides="1" tooltips="1" connect="1" arrows="1" fold="1" page="1" pageScale="1" pageWidth="827" pageHeight="1169" math="0" shadow="0">
      <root>
        <mxCell id="0" />
        <mxCell id="1" parent="0" />
        <mxCell id="9cV9WOGKG3hOa9NewDHu-52" value="" style="whiteSpace=wrap;html=1;align=center;fillColor=#f5f5f5;fontColor=#333333;strokeColor=#666666;" parent="1" vertex="1">
          <mxGeometry x="116.25" y="50" width="652.75" height="600" as="geometry" />
        </mxCell>
        <mxCell id="9cV9WOGKG3hOa9NewDHu-1" value="gerer les offres" style="ellipse;whiteSpace=wrap;html=1;" parent="1" vertex="1">
          <mxGeometry x="218" y="295" width="171" height="45" as="geometry" />
        </mxCell>
        <mxCell id="9cV9WOGKG3hOa9NewDHu-6" value="RH/Recruiter" style="shape=umlActor;verticalLabelPosition=bottom;verticalAlign=top;html=1;outlineConnect=0;" parent="1" vertex="1">
          <mxGeometry x="59" y="300" width="30" height="60" as="geometry" />
        </mxCell>
        <mxCell id="9cV9WOGKG3hOa9NewDHu-7" value="user/Candidate" style="shape=umlActor;verticalLabelPosition=bottom;verticalAlign=top;html=1;outlineConnect=0;" parent="1" vertex="1">
          <mxGeometry x="59" y="120" width="30" height="60" as="geometry" />
        </mxCell>
        <mxCell id="9cV9WOGKG3hOa9NewDHu-8" value="admin" style="shape=umlActor;verticalLabelPosition=bottom;verticalAlign=top;html=1;outlineConnect=0;" parent="1" vertex="1">
          <mxGeometry x="59" y="500" width="30" height="60" as="geometry" />
        </mxCell>
        <mxCell id="9cV9WOGKG3hOa9NewDHu-12" value="décider l&#39;etat de candidature&amp;nbsp;" style="ellipse;whiteSpace=wrap;html=1;align=center;" parent="1" vertex="1">
          <mxGeometry x="213" y="360" width="190" height="40" as="geometry" />
        </mxCell>
        <mxCell id="9cV9WOGKG3hOa9NewDHu-13" value="gerer profile&amp;nbsp;" style="ellipse;whiteSpace=wrap;html=1;align=center;" parent="1" vertex="1">
          <mxGeometry x="216.25" y="180" width="152.75" height="40" as="geometry" />
        </mxCell>
        <mxCell id="9cV9WOGKG3hOa9NewDHu-17" value="" style="endArrow=open;endFill=1;endSize=12;html=1;rounded=0;entryX=0;entryY=0.5;entryDx=0;entryDy=0;" parent="1" target="9cV9WOGKG3hOa9NewDHu-13" edge="1">
          <mxGeometry width="160" relative="1" as="geometry">
            <mxPoint x="89" y="140" as="sourcePoint" />
            <mxPoint x="449" y="240" as="targetPoint" />
          </mxGeometry>
        </mxCell>
        <mxCell id="9cV9WOGKG3hOa9NewDHu-19" value="" style="endArrow=open;endFill=1;endSize=12;html=1;rounded=0;entryX=0;entryY=0.5;entryDx=0;entryDy=0;exitX=1;exitY=0.3333333333333333;exitDx=0;exitDy=0;exitPerimeter=0;" parent="1" source="9cV9WOGKG3hOa9NewDHu-6" target="9cV9WOGKG3hOa9NewDHu-1" edge="1">
          <mxGeometry width="160" relative="1" as="geometry">
            <mxPoint x="99" y="320" as="sourcePoint" />
            <mxPoint x="449" y="240" as="targetPoint" />
          </mxGeometry>
        </mxCell>
        <mxCell id="9cV9WOGKG3hOa9NewDHu-20" value="" style="endArrow=open;endFill=1;endSize=12;html=1;rounded=0;exitX=1;exitY=0.3333333333333333;exitDx=0;exitDy=0;exitPerimeter=0;entryX=0;entryY=0.5;entryDx=0;entryDy=0;" parent="1" source="9cV9WOGKG3hOa9NewDHu-6" target="9cV9WOGKG3hOa9NewDHu-12" edge="1">
          <mxGeometry width="160" relative="1" as="geometry">
            <mxPoint x="289" y="240" as="sourcePoint" />
            <mxPoint x="449" y="240" as="targetPoint" />
          </mxGeometry>
        </mxCell>
        <mxCell id="9cV9WOGKG3hOa9NewDHu-24" value="consulter les offres" style="ellipse;whiteSpace=wrap;html=1;align=center;" parent="1" vertex="1">
          <mxGeometry x="213" y="130" width="160" height="40" as="geometry" />
        </mxCell>
        <mxCell id="9cV9WOGKG3hOa9NewDHu-25" value="postuler à un emploi" style="ellipse;whiteSpace=wrap;html=1;align=center;" parent="1" vertex="1">
          <mxGeometry x="213" y="230" width="170" height="40" as="geometry" />
        </mxCell>
        <mxCell id="9cV9WOGKG3hOa9NewDHu-26" value="" style="endArrow=open;endFill=1;endSize=12;html=1;rounded=0;entryX=0;entryY=0.5;entryDx=0;entryDy=0;exitX=1;exitY=0.3333333333333333;exitDx=0;exitDy=0;exitPerimeter=0;" parent="1" source="9cV9WOGKG3hOa9NewDHu-7" target="9cV9WOGKG3hOa9NewDHu-24" edge="1">
          <mxGeometry width="160" relative="1" as="geometry">
            <mxPoint x="89" y="150" as="sourcePoint" />
            <mxPoint x="449" y="340" as="targetPoint" />
          </mxGeometry>
        </mxCell>
        <mxCell id="9cV9WOGKG3hOa9NewDHu-27" value="" style="endArrow=open;endFill=1;endSize=12;html=1;rounded=0;entryX=0;entryY=0.5;entryDx=0;entryDy=0;exitX=1;exitY=0.3333333333333333;exitDx=0;exitDy=0;exitPerimeter=0;" parent="1" source="9cV9WOGKG3hOa9NewDHu-7" target="9cV9WOGKG3hOa9NewDHu-25" edge="1">
          <mxGeometry width="160" relative="1" as="geometry">
            <mxPoint x="89" y="150" as="sourcePoint" />
            <mxPoint x="449" y="340" as="targetPoint" />
          </mxGeometry>
        </mxCell>
        <mxCell id="9cV9WOGKG3hOa9NewDHu-28" value="gerer le personnel&amp;nbsp;" style="ellipse;whiteSpace=wrap;html=1;" parent="1" vertex="1">
          <mxGeometry x="213" y="420" width="196" height="40" as="geometry" />
        </mxCell>
        <mxCell id="9cV9WOGKG3hOa9NewDHu-29" value="" style="endArrow=open;endFill=1;endSize=12;html=1;rounded=0;exitX=1;exitY=0.3333333333333333;exitDx=0;exitDy=0;exitPerimeter=0;entryX=0;entryY=0.5;entryDx=0;entryDy=0;" parent="1" source="9cV9WOGKG3hOa9NewDHu-6" target="9cV9WOGKG3hOa9NewDHu-28" edge="1">
          <mxGeometry width="160" relative="1" as="geometry">
            <mxPoint x="289" y="440" as="sourcePoint" />
            <mxPoint x="449" y="440" as="targetPoint" />
          </mxGeometry>
        </mxCell>
        <mxCell id="9cV9WOGKG3hOa9NewDHu-30" value="consulter les statistiques&amp;nbsp;" style="ellipse;whiteSpace=wrap;html=1;align=center;" parent="1" vertex="1">
          <mxGeometry x="203" y="510" width="190" height="40" as="geometry" />
        </mxCell>
        <mxCell id="9cV9WOGKG3hOa9NewDHu-31" value="s&#39;inscrire" style="ellipse;whiteSpace=wrap;html=1;align=center;" parent="1" vertex="1">
          <mxGeometry x="213" y="80" width="156" height="40" as="geometry" />
        </mxCell>
        <mxCell id="9cV9WOGKG3hOa9NewDHu-32" value="valider les compte" style="ellipse;whiteSpace=wrap;html=1;align=center;" parent="1" vertex="1">
          <mxGeometry x="203" y="580" width="186" height="40" as="geometry" />
        </mxCell>
        <mxCell id="9cV9WOGKG3hOa9NewDHu-33" value="" style="endArrow=open;endFill=1;endSize=12;html=1;rounded=0;entryX=0;entryY=0.5;entryDx=0;entryDy=0;exitX=1;exitY=0.3333333333333333;exitDx=0;exitDy=0;exitPerimeter=0;" parent="1" source="9cV9WOGKG3hOa9NewDHu-7" target="9cV9WOGKG3hOa9NewDHu-31" edge="1">
          <mxGeometry width="160" relative="1" as="geometry">
            <mxPoint x="89" y="150" as="sourcePoint" />
            <mxPoint x="449" y="540" as="targetPoint" />
          </mxGeometry>
        </mxCell>
        <mxCell id="9cV9WOGKG3hOa9NewDHu-34" value="" style="endArrow=open;endFill=1;endSize=12;html=1;rounded=0;exitX=1;exitY=0.3333333333333333;exitDx=0;exitDy=0;exitPerimeter=0;" parent="1" source="9cV9WOGKG3hOa9NewDHu-8" edge="1">
          <mxGeometry width="160" relative="1" as="geometry">
            <mxPoint x="289" y="540" as="sourcePoint" />
            <mxPoint x="209" y="530" as="targetPoint" />
          </mxGeometry>
        </mxCell>
        <mxCell id="9cV9WOGKG3hOa9NewDHu-35" value="" style="endArrow=open;endFill=1;endSize=12;html=1;rounded=0;entryX=0.032;entryY=0.5;entryDx=0;entryDy=0;entryPerimeter=0;exitX=1;exitY=0.3333333333333333;exitDx=0;exitDy=0;exitPerimeter=0;" parent="1" source="9cV9WOGKG3hOa9NewDHu-8" target="9cV9WOGKG3hOa9NewDHu-32" edge="1">
          <mxGeometry width="160" relative="1" as="geometry">
            <mxPoint x="89" y="530" as="sourcePoint" />
            <mxPoint x="199" y="590" as="targetPoint" />
          </mxGeometry>
        </mxCell>
        <mxCell id="9cV9WOGKG3hOa9NewDHu-36" value="authentification" style="ellipse;whiteSpace=wrap;html=1;" parent="1" vertex="1">
          <mxGeometry x="629" y="330" width="100" height="40" as="geometry" />
        </mxCell>
        <mxCell id="9cV9WOGKG3hOa9NewDHu-37" value="&amp;lt;&amp;lt; include&amp;gt;&amp;gt;" style="endArrow=open;endSize=12;dashed=1;html=1;rounded=0;exitX=1;exitY=0.5;exitDx=0;exitDy=0;entryX=0;entryY=0;entryDx=0;entryDy=0;" parent="1" source="9cV9WOGKG3hOa9NewDHu-25" target="9cV9WOGKG3hOa9NewDHu-36" edge="1">
          <mxGeometry x="0.1502" y="-3" width="160" relative="1" as="geometry">
            <mxPoint x="439" y="365" as="sourcePoint" />
            <mxPoint x="499" y="280" as="targetPoint" />
            <mxPoint as="offset" />
          </mxGeometry>
        </mxCell>
        <mxCell id="9cV9WOGKG3hOa9NewDHu-39" value="" style="endArrow=open;endSize=12;dashed=1;html=1;rounded=0;exitX=1;exitY=0.5;exitDx=0;exitDy=0;entryX=0.283;entryY=0.094;entryDx=0;entryDy=0;entryPerimeter=0;" parent="1" source="9cV9WOGKG3hOa9NewDHu-13" target="9cV9WOGKG3hOa9NewDHu-36" edge="1">
          <mxGeometry width="160" relative="1" as="geometry">
            <mxPoint x="289" y="440" as="sourcePoint" />
            <mxPoint x="449" y="440" as="targetPoint" />
          </mxGeometry>
        </mxCell>
        <mxCell id="9cV9WOGKG3hOa9NewDHu-41" value="&amp;lt;&amp;lt; include&amp;gt;&amp;gt;" style="endArrow=open;endSize=12;dashed=1;html=1;rounded=0;exitX=1;exitY=0.5;exitDx=0;exitDy=0;entryX=0;entryY=0.5;entryDx=0;entryDy=0;" parent="1" source="9cV9WOGKG3hOa9NewDHu-1" target="9cV9WOGKG3hOa9NewDHu-36" edge="1">
          <mxGeometry width="160" relative="1" as="geometry">
            <mxPoint x="393" y="260" as="sourcePoint" />
            <mxPoint x="509" y="290" as="targetPoint" />
          </mxGeometry>
        </mxCell>
        <mxCell id="9cV9WOGKG3hOa9NewDHu-42" value="&amp;lt;&amp;lt; include&amp;gt;&amp;gt;" style="endArrow=open;endSize=12;dashed=1;html=1;rounded=0;exitX=1;exitY=0.5;exitDx=0;exitDy=0;entryX=0.003;entryY=0.7;entryDx=0;entryDy=0;entryPerimeter=0;" parent="1" source="9cV9WOGKG3hOa9NewDHu-12" target="9cV9WOGKG3hOa9NewDHu-36" edge="1">
          <mxGeometry width="160" relative="1" as="geometry">
            <mxPoint x="403" y="270" as="sourcePoint" />
            <mxPoint x="519" y="300" as="targetPoint" />
          </mxGeometry>
        </mxCell>
        <mxCell id="9cV9WOGKG3hOa9NewDHu-43" value="&amp;lt;&amp;lt; include&amp;gt;&amp;gt;" style="endArrow=open;endSize=12;dashed=1;html=1;rounded=0;exitX=1;exitY=0.5;exitDx=0;exitDy=0;" parent="1" source="9cV9WOGKG3hOa9NewDHu-28" edge="1">
          <mxGeometry width="160" relative="1" as="geometry">
            <mxPoint x="413" y="280" as="sourcePoint" />
            <mxPoint x="639" y="360" as="targetPoint" />
          </mxGeometry>
        </mxCell>
        <mxCell id="9cV9WOGKG3hOa9NewDHu-44" value="&amp;lt;&amp;lt; include&amp;gt;&amp;gt;" style="endArrow=open;endSize=12;dashed=1;html=1;rounded=0;exitX=1;exitY=0.5;exitDx=0;exitDy=0;entryX=0.311;entryY=0.951;entryDx=0;entryDy=0;entryPerimeter=0;" parent="1" source="9cV9WOGKG3hOa9NewDHu-30" target="9cV9WOGKG3hOa9NewDHu-36" edge="1">
          <mxGeometry width="160" relative="1" as="geometry">
            <mxPoint x="423" y="290" as="sourcePoint" />
            <mxPoint x="559" y="330" as="targetPoint" />
          </mxGeometry>
        </mxCell>
        <mxCell id="9cV9WOGKG3hOa9NewDHu-45" value="&amp;lt;&amp;lt; include&amp;gt;&amp;gt;" style="endArrow=open;endSize=12;dashed=1;html=1;rounded=0;exitX=1;exitY=0.5;exitDx=0;exitDy=0;entryX=0.649;entryY=1.037;entryDx=0;entryDy=0;entryPerimeter=0;" parent="1" source="9cV9WOGKG3hOa9NewDHu-32" target="9cV9WOGKG3hOa9NewDHu-36" edge="1">
          <mxGeometry width="160" relative="1" as="geometry">
            <mxPoint x="433" y="300" as="sourcePoint" />
            <mxPoint x="549" y="330" as="targetPoint" />
          </mxGeometry>
        </mxCell>
        <mxCell id="9cV9WOGKG3hOa9NewDHu-46" value="" style="endArrow=block;endSize=16;endFill=0;html=1;rounded=0;exitX=0.5;exitY=0;exitDx=0;exitDy=0;exitPerimeter=0;" parent="1" source="9cV9WOGKG3hOa9NewDHu-6" edge="1">
          <mxGeometry width="160" relative="1" as="geometry">
            <mxPoint x="-6" y="249.5" as="sourcePoint" />
            <mxPoint x="74" y="210" as="targetPoint" />
          </mxGeometry>
        </mxCell>
        <mxCell id="9cV9WOGKG3hOa9NewDHu-48" value="" style="endArrow=block;endSize=16;endFill=0;html=1;rounded=0;exitX=0.5;exitY=0;exitDx=0;exitDy=0;exitPerimeter=0;" parent="1" source="9cV9WOGKG3hOa9NewDHu-8" edge="1">
          <mxGeometry width="160" relative="1" as="geometry">
            <mxPoint x="73.5" y="500" as="sourcePoint" />
            <mxPoint x="74" y="390" as="targetPoint" />
          </mxGeometry>
        </mxCell>
        <mxCell id="9cV9WOGKG3hOa9NewDHu-53" value="JobPortalX App" style="text;html=1;align=center;verticalAlign=middle;resizable=0;points=[];autosize=1;strokeColor=#6c8ebf;fillColor=#dae8fc;" parent="1" vertex="1">
          <mxGeometry x="509" y="50" width="110" height="30" as="geometry" />
        </mxCell>
      </root>
    </mxGraphModel>
  </diagram>
  <diagram id="UMu-5LZ2VuvK_qh5HoGn" name="diagramme de classe">
    <mxGraphModel dx="1036" dy="678" grid="1" gridSize="10" guides="1" tooltips="1" connect="1" arrows="1" fold="1" page="1" pageScale="1" pageWidth="827" pageHeight="1169" math="0" shadow="0">
      <root>
        <mxCell id="0" />
        <mxCell id="1" parent="0" />
        <mxCell id="VMFRGQ2uggBaWj2ETDVq-1" value="User" style="swimlane;fontStyle=1;align=center;verticalAlign=top;childLayout=stackLayout;horizontal=1;startSize=26;horizontalStack=0;resizeParent=1;resizeParentMax=0;resizeLast=0;collapsible=1;marginBottom=0;whiteSpace=wrap;html=1;fillColor=#f8cecc;strokeColor=#b85450;" parent="1" vertex="1">
          <mxGeometry x="450" y="200" width="200" height="398" as="geometry" />
        </mxCell>
        <mxCell id="VMFRGQ2uggBaWj2ETDVq-2" value="- id : int" style="text;strokeColor=none;fillColor=none;align=left;verticalAlign=top;spacingLeft=4;spacingRight=4;overflow=hidden;rotatable=0;points=[[0,0.5],[1,0.5]];portConstraint=eastwest;whiteSpace=wrap;html=1;" parent="VMFRGQ2uggBaWj2ETDVq-1" vertex="1">
          <mxGeometry y="26" width="200" height="26" as="geometry" />
        </mxCell>
        <mxCell id="VMFRGQ2uggBaWj2ETDVq-5" value="- first_name : string" style="text;strokeColor=none;fillColor=none;align=left;verticalAlign=top;spacingLeft=4;spacingRight=4;overflow=hidden;rotatable=0;points=[[0,0.5],[1,0.5]];portConstraint=eastwest;whiteSpace=wrap;html=1;" parent="VMFRGQ2uggBaWj2ETDVq-1" vertex="1">
          <mxGeometry y="52" width="200" height="26" as="geometry" />
        </mxCell>
        <mxCell id="VMFRGQ2uggBaWj2ETDVq-7" value="- last_name : string" style="text;strokeColor=none;fillColor=none;align=left;verticalAlign=top;spacingLeft=4;spacingRight=4;overflow=hidden;rotatable=0;points=[[0,0.5],[1,0.5]];portConstraint=eastwest;whiteSpace=wrap;html=1;" parent="VMFRGQ2uggBaWj2ETDVq-1" vertex="1">
          <mxGeometry y="78" width="200" height="26" as="geometry" />
        </mxCell>
        <mxCell id="VMFRGQ2uggBaWj2ETDVq-6" value="- image : string" style="text;strokeColor=none;fillColor=none;align=left;verticalAlign=top;spacingLeft=4;spacingRight=4;overflow=hidden;rotatable=0;points=[[0,0.5],[1,0.5]];portConstraint=eastwest;whiteSpace=wrap;html=1;" parent="VMFRGQ2uggBaWj2ETDVq-1" vertex="1">
          <mxGeometry y="104" width="200" height="26" as="geometry" />
        </mxCell>
        <mxCell id="pH29gNvESW1b4C2UTaQz-4" value="-&amp;nbsp;Civility : enum { mr, mrs, ms}" style="text;strokeColor=none;fillColor=none;align=left;verticalAlign=top;spacingLeft=4;spacingRight=4;overflow=hidden;rotatable=0;points=[[0,0.5],[1,0.5]];portConstraint=eastwest;whiteSpace=wrap;html=1;" parent="VMFRGQ2uggBaWj2ETDVq-1" vertex="1">
          <mxGeometry y="130" width="200" height="26" as="geometry" />
        </mxCell>
        <mxCell id="_jsi2qAfOdc5hkqpZCn1-1" value="- cv : string" style="text;strokeColor=none;fillColor=none;align=left;verticalAlign=top;spacingLeft=4;spacingRight=4;overflow=hidden;rotatable=0;points=[[0,0.5],[1,0.5]];portConstraint=eastwest;whiteSpace=wrap;html=1;" parent="VMFRGQ2uggBaWj2ETDVq-1" vertex="1">
          <mxGeometry y="156" width="200" height="26" as="geometry" />
        </mxCell>
        <mxCell id="pH29gNvESW1b4C2UTaQz-5" value="- birthday : date" style="text;strokeColor=none;fillColor=none;align=left;verticalAlign=top;spacingLeft=4;spacingRight=4;overflow=hidden;rotatable=0;points=[[0,0.5],[1,0.5]];portConstraint=eastwest;whiteSpace=wrap;html=1;" parent="VMFRGQ2uggBaWj2ETDVq-1" vertex="1">
          <mxGeometry y="182" width="200" height="26" as="geometry" />
        </mxCell>
        <mxCell id="pH29gNvESW1b4C2UTaQz-6" value="- address : string" style="text;strokeColor=none;fillColor=none;align=left;verticalAlign=top;spacingLeft=4;spacingRight=4;overflow=hidden;rotatable=0;points=[[0,0.5],[1,0.5]];portConstraint=eastwest;whiteSpace=wrap;html=1;" parent="VMFRGQ2uggBaWj2ETDVq-1" vertex="1">
          <mxGeometry y="208" width="200" height="26" as="geometry" />
        </mxCell>
        <mxCell id="VMFRGQ2uggBaWj2ETDVq-8" value="- role : enum {user,admin,rh}" style="text;strokeColor=none;fillColor=none;align=left;verticalAlign=top;spacingLeft=4;spacingRight=4;overflow=hidden;rotatable=0;points=[[0,0.5],[1,0.5]];portConstraint=eastwest;whiteSpace=wrap;html=1;" parent="VMFRGQ2uggBaWj2ETDVq-1" vertex="1">
          <mxGeometry y="234" width="200" height="26" as="geometry" />
        </mxCell>
        <mxCell id="pH29gNvESW1b4C2UTaQz-1" value="- email : string" style="text;strokeColor=none;fillColor=none;align=left;verticalAlign=top;spacingLeft=4;spacingRight=4;overflow=hidden;rotatable=0;points=[[0,0.5],[1,0.5]];portConstraint=eastwest;whiteSpace=wrap;html=1;" parent="VMFRGQ2uggBaWj2ETDVq-1" vertex="1">
          <mxGeometry y="260" width="200" height="26" as="geometry" />
        </mxCell>
        <mxCell id="pH29gNvESW1b4C2UTaQz-2" value="- password : string" style="text;strokeColor=none;fillColor=none;align=left;verticalAlign=top;spacingLeft=4;spacingRight=4;overflow=hidden;rotatable=0;points=[[0,0.5],[1,0.5]];portConstraint=eastwest;whiteSpace=wrap;html=1;" parent="VMFRGQ2uggBaWj2ETDVq-1" vertex="1">
          <mxGeometry y="286" width="200" height="26" as="geometry" />
        </mxCell>
        <mxCell id="pH29gNvESW1b4C2UTaQz-3" value="-&amp;nbsp;createdAt : Date" style="text;strokeColor=none;fillColor=none;align=left;verticalAlign=top;spacingLeft=4;spacingRight=4;overflow=hidden;rotatable=0;points=[[0,0.5],[1,0.5]];portConstraint=eastwest;whiteSpace=wrap;html=1;" parent="VMFRGQ2uggBaWj2ETDVq-1" vertex="1">
          <mxGeometry y="312" width="200" height="26" as="geometry" />
        </mxCell>
        <mxCell id="VMFRGQ2uggBaWj2ETDVq-3" value="" style="line;strokeWidth=1;fillColor=none;align=left;verticalAlign=middle;spacingTop=-1;spacingLeft=3;spacingRight=3;rotatable=0;labelPosition=right;points=[];portConstraint=eastwest;strokeColor=inherit;" parent="VMFRGQ2uggBaWj2ETDVq-1" vertex="1">
          <mxGeometry y="338" width="200" height="8" as="geometry" />
        </mxCell>
        <mxCell id="VMFRGQ2uggBaWj2ETDVq-4" value="+ register()" style="text;strokeColor=none;fillColor=none;align=left;verticalAlign=top;spacingLeft=4;spacingRight=4;overflow=hidden;rotatable=0;points=[[0,0.5],[1,0.5]];portConstraint=eastwest;whiteSpace=wrap;html=1;" parent="VMFRGQ2uggBaWj2ETDVq-1" vertex="1">
          <mxGeometry y="346" width="200" height="26" as="geometry" />
        </mxCell>
        <mxCell id="pH29gNvESW1b4C2UTaQz-20" value="+ login()&amp;nbsp;" style="text;strokeColor=none;fillColor=none;align=left;verticalAlign=top;spacingLeft=4;spacingRight=4;overflow=hidden;rotatable=0;points=[[0,0.5],[1,0.5]];portConstraint=eastwest;whiteSpace=wrap;html=1;" parent="VMFRGQ2uggBaWj2ETDVq-1" vertex="1">
          <mxGeometry y="372" width="200" height="26" as="geometry" />
        </mxCell>
        <mxCell id="pH29gNvESW1b4C2UTaQz-7" value="Employee" style="swimlane;fontStyle=1;align=center;verticalAlign=top;childLayout=stackLayout;horizontal=1;startSize=26;horizontalStack=0;resizeParent=1;resizeParentMax=0;resizeLast=0;collapsible=1;marginBottom=0;whiteSpace=wrap;html=1;swimlaneFillColor=none;fillColor=#f8cecc;strokeColor=#b85450;" parent="1" vertex="1">
          <mxGeometry x="50" y="200" width="160" height="164" as="geometry" />
        </mxCell>
        <mxCell id="pH29gNvESW1b4C2UTaQz-8" value="- id : int" style="text;strokeColor=none;fillColor=none;align=left;verticalAlign=top;spacingLeft=4;spacingRight=4;overflow=hidden;rotatable=0;points=[[0,0.5],[1,0.5]];portConstraint=eastwest;whiteSpace=wrap;html=1;" parent="pH29gNvESW1b4C2UTaQz-7" vertex="1">
          <mxGeometry y="26" width="160" height="26" as="geometry" />
        </mxCell>
        <mxCell id="pH29gNvESW1b4C2UTaQz-13" value="-&amp;nbsp;company : string" style="text;strokeColor=none;fillColor=none;align=left;verticalAlign=top;spacingLeft=4;spacingRight=4;overflow=hidden;rotatable=0;points=[[0,0.5],[1,0.5]];portConstraint=eastwest;whiteSpace=wrap;html=1;" parent="pH29gNvESW1b4C2UTaQz-7" vertex="1">
          <mxGeometry y="52" width="160" height="26" as="geometry" />
        </mxCell>
        <mxCell id="JCWhsadqgJBQCSYU9s95-1" value="- description : string" style="text;strokeColor=none;fillColor=none;align=left;verticalAlign=top;spacingLeft=4;spacingRight=4;overflow=hidden;rotatable=0;points=[[0,0.5],[1,0.5]];portConstraint=eastwest;whiteSpace=wrap;html=1;" parent="pH29gNvESW1b4C2UTaQz-7" vertex="1">
          <mxGeometry y="78" width="160" height="26" as="geometry" />
        </mxCell>
        <mxCell id="pH29gNvESW1b4C2UTaQz-9" value="" style="line;strokeWidth=1;fillColor=none;align=left;verticalAlign=middle;spacingTop=-1;spacingLeft=3;spacingRight=3;rotatable=0;labelPosition=right;points=[];portConstraint=eastwest;strokeColor=inherit;" parent="pH29gNvESW1b4C2UTaQz-7" vertex="1">
          <mxGeometry y="104" width="160" height="8" as="geometry" />
        </mxCell>
        <mxCell id="pH29gNvESW1b4C2UTaQz-10" value="+ addJobPost()&amp;nbsp;" style="text;strokeColor=none;fillColor=none;align=left;verticalAlign=top;spacingLeft=4;spacingRight=4;overflow=hidden;rotatable=0;points=[[0,0.5],[1,0.5]];portConstraint=eastwest;whiteSpace=wrap;html=1;" parent="pH29gNvESW1b4C2UTaQz-7" vertex="1">
          <mxGeometry y="112" width="160" height="26" as="geometry" />
        </mxCell>
        <mxCell id="pH29gNvESW1b4C2UTaQz-22" value="+ editJobPost()&amp;nbsp; &amp;nbsp;" style="text;strokeColor=none;fillColor=none;align=left;verticalAlign=top;spacingLeft=4;spacingRight=4;overflow=hidden;rotatable=0;points=[[0,0.5],[1,0.5]];portConstraint=eastwest;whiteSpace=wrap;html=1;" parent="pH29gNvESW1b4C2UTaQz-7" vertex="1">
          <mxGeometry y="138" width="160" height="26" as="geometry" />
        </mxCell>
        <mxCell id="pH29gNvESW1b4C2UTaQz-14" value="Extends" style="endArrow=block;endSize=16;endFill=0;html=1;rounded=0;exitX=1.022;exitY=-0.069;exitDx=0;exitDy=0;entryX=-0.014;entryY=0.177;entryDx=0;entryDy=0;exitPerimeter=0;entryPerimeter=0;" parent="1" source="pH29gNvESW1b4C2UTaQz-13" target="VMFRGQ2uggBaWj2ETDVq-5" edge="1">
          <mxGeometry width="160" relative="1" as="geometry">
            <mxPoint x="330" y="550" as="sourcePoint" />
            <mxPoint x="490" y="550" as="targetPoint" />
          </mxGeometry>
        </mxCell>
        <mxCell id="pH29gNvESW1b4C2UTaQz-15" value="JobPost" style="swimlane;fontStyle=1;align=center;verticalAlign=top;childLayout=stackLayout;horizontal=1;startSize=26;horizontalStack=0;resizeParent=1;resizeParentMax=0;resizeLast=0;collapsible=1;marginBottom=0;whiteSpace=wrap;html=1;fillColor=#fff2cc;strokeColor=#d6b656;" parent="1" vertex="1">
          <mxGeometry x="80" y="400" width="160" height="316" as="geometry" />
        </mxCell>
        <mxCell id="pH29gNvESW1b4C2UTaQz-16" value="- id : int" style="text;strokeColor=none;fillColor=none;align=left;verticalAlign=top;spacingLeft=4;spacingRight=4;overflow=hidden;rotatable=0;points=[[0,0.5],[1,0.5]];portConstraint=eastwest;whiteSpace=wrap;html=1;" parent="pH29gNvESW1b4C2UTaQz-15" vertex="1">
          <mxGeometry y="26" width="160" height="26" as="geometry" />
        </mxCell>
        <mxCell id="pH29gNvESW1b4C2UTaQz-24" value="- title: String&amp;nbsp;&amp;nbsp;" style="text;strokeColor=none;fillColor=none;align=left;verticalAlign=top;spacingLeft=4;spacingRight=4;overflow=hidden;rotatable=0;points=[[0,0.5],[1,0.5]];portConstraint=eastwest;whiteSpace=wrap;html=1;" parent="pH29gNvESW1b4C2UTaQz-15" vertex="1">
          <mxGeometry y="52" width="160" height="26" as="geometry" />
        </mxCell>
        <mxCell id="pH29gNvESW1b4C2UTaQz-23" value="- description: String&amp;nbsp;" style="text;strokeColor=none;fillColor=none;align=left;verticalAlign=top;spacingLeft=4;spacingRight=4;overflow=hidden;rotatable=0;points=[[0,0.5],[1,0.5]];portConstraint=eastwest;whiteSpace=wrap;html=1;" parent="pH29gNvESW1b4C2UTaQz-15" vertex="1">
          <mxGeometry y="78" width="160" height="26" as="geometry" />
        </mxCell>
        <mxCell id="pH29gNvESW1b4C2UTaQz-34" value="-&amp;nbsp;Mission :&amp;nbsp; string" style="text;strokeColor=none;fillColor=none;align=left;verticalAlign=top;spacingLeft=4;spacingRight=4;overflow=hidden;rotatable=0;points=[[0,0.5],[1,0.5]];portConstraint=eastwest;whiteSpace=wrap;html=1;" parent="pH29gNvESW1b4C2UTaQz-15" vertex="1">
          <mxGeometry y="104" width="160" height="26" as="geometry" />
        </mxCell>
        <mxCell id="pH29gNvESW1b4C2UTaQz-25" value="- requirements: string" style="text;strokeColor=none;fillColor=none;align=left;verticalAlign=top;spacingLeft=4;spacingRight=4;overflow=hidden;rotatable=0;points=[[0,0.5],[1,0.5]];portConstraint=eastwest;whiteSpace=wrap;html=1;" parent="pH29gNvESW1b4C2UTaQz-15" vertex="1">
          <mxGeometry y="130" width="160" height="22" as="geometry" />
        </mxCell>
        <mxCell id="pH29gNvESW1b4C2UTaQz-37" value="- end_date : date" style="text;strokeColor=none;fillColor=none;align=left;verticalAlign=top;spacingLeft=4;spacingRight=4;overflow=hidden;rotatable=0;points=[[0,0.5],[1,0.5]];portConstraint=eastwest;whiteSpace=wrap;html=1;" parent="pH29gNvESW1b4C2UTaQz-15" vertex="1">
          <mxGeometry y="152" width="160" height="26" as="geometry" />
        </mxCell>
        <mxCell id="pH29gNvESW1b4C2UTaQz-26" value="- location: String" style="text;strokeColor=none;fillColor=none;align=left;verticalAlign=top;spacingLeft=4;spacingRight=4;overflow=hidden;rotatable=0;points=[[0,0.5],[1,0.5]];portConstraint=eastwest;whiteSpace=wrap;html=1;" parent="pH29gNvESW1b4C2UTaQz-15" vertex="1">
          <mxGeometry y="178" width="160" height="26" as="geometry" />
        </mxCell>
        <mxCell id="pH29gNvESW1b4C2UTaQz-27" value="- id_employee : int" style="text;strokeColor=none;fillColor=none;align=left;verticalAlign=top;spacingLeft=4;spacingRight=4;overflow=hidden;rotatable=0;points=[[0,0.5],[1,0.5]];portConstraint=eastwest;whiteSpace=wrap;html=1;" parent="pH29gNvESW1b4C2UTaQz-15" vertex="1">
          <mxGeometry y="204" width="160" height="26" as="geometry" />
        </mxCell>
        <mxCell id="pH29gNvESW1b4C2UTaQz-28" value="- createdAt: Date" style="text;strokeColor=none;fillColor=none;align=left;verticalAlign=top;spacingLeft=4;spacingRight=4;overflow=hidden;rotatable=0;points=[[0,0.5],[1,0.5]];portConstraint=eastwest;whiteSpace=wrap;html=1;" parent="pH29gNvESW1b4C2UTaQz-15" vertex="1">
          <mxGeometry y="230" width="160" height="26" as="geometry" />
        </mxCell>
        <mxCell id="pH29gNvESW1b4C2UTaQz-17" value="" style="line;strokeWidth=1;fillColor=none;align=left;verticalAlign=middle;spacingTop=-1;spacingLeft=3;spacingRight=3;rotatable=0;labelPosition=right;points=[];portConstraint=eastwest;strokeColor=inherit;" parent="pH29gNvESW1b4C2UTaQz-15" vertex="1">
          <mxGeometry y="256" width="160" height="8" as="geometry" />
        </mxCell>
        <mxCell id="pH29gNvESW1b4C2UTaQz-18" value="+ createJob()" style="text;strokeColor=none;fillColor=none;align=left;verticalAlign=top;spacingLeft=4;spacingRight=4;overflow=hidden;rotatable=0;points=[[0,0.5],[1,0.5]];portConstraint=eastwest;whiteSpace=wrap;html=1;" parent="pH29gNvESW1b4C2UTaQz-15" vertex="1">
          <mxGeometry y="264" width="160" height="26" as="geometry" />
        </mxCell>
        <mxCell id="pH29gNvESW1b4C2UTaQz-29" value="+ updateJob()" style="text;strokeColor=none;fillColor=none;align=left;verticalAlign=top;spacingLeft=4;spacingRight=4;overflow=hidden;rotatable=0;points=[[0,0.5],[1,0.5]];portConstraint=eastwest;whiteSpace=wrap;html=1;" parent="pH29gNvESW1b4C2UTaQz-15" vertex="1">
          <mxGeometry y="290" width="160" height="26" as="geometry" />
        </mxCell>
        <mxCell id="pH29gNvESW1b4C2UTaQz-30" value="" style="endArrow=open;endFill=1;endSize=12;html=1;rounded=0;exitX=1;exitY=0.5;exitDx=0;exitDy=0;entryX=1.017;entryY=0.823;entryDx=0;entryDy=0;entryPerimeter=0;" parent="1" source="JCWhsadqgJBQCSYU9s95-1" target="pH29gNvESW1b4C2UTaQz-34" edge="1">
          <mxGeometry width="160" relative="1" as="geometry">
            <mxPoint x="330" y="650" as="sourcePoint" />
            <mxPoint x="490" y="650" as="targetPoint" />
            <Array as="points">
              <mxPoint x="280" y="400" />
            </Array>
          </mxGeometry>
        </mxCell>
        <mxCell id="pH29gNvESW1b4C2UTaQz-31" value="1" style="edgeLabel;html=1;align=center;verticalAlign=middle;resizable=0;points=[];" parent="pH29gNvESW1b4C2UTaQz-30" vertex="1" connectable="0">
          <mxGeometry x="-0.7233" relative="1" as="geometry">
            <mxPoint as="offset" />
          </mxGeometry>
        </mxCell>
        <mxCell id="pH29gNvESW1b4C2UTaQz-32" value="0..*" style="edgeLabel;html=1;align=center;verticalAlign=middle;resizable=0;points=[];" parent="pH29gNvESW1b4C2UTaQz-30" vertex="1" connectable="0">
          <mxGeometry x="0.6443" y="-3" relative="1" as="geometry">
            <mxPoint as="offset" />
          </mxGeometry>
        </mxCell>
      </root>
    </mxGraphModel>
  </diagram>
</mxfile>
